<svg width="210" height="70" viewBox="0 0 210 70" fill="none" xmlns="http://www.w3.org/2000/svg">
<g clip-path="url(#clip0_3_2)">
<path d="M54.754 31.512C55.6407 31.512 56.4007 31.5753 57.034 31.702C57.6673 31.8033 58.1233 31.9047 58.402 32.006L57.908 35.046C57.6293 34.9447 57.2493 34.8433 56.768 34.742C56.2867 34.6153 55.704 34.552 55.02 34.552C53.3733 34.552 52.2207 35.008 51.562 35.92C50.9033 36.8067 50.574 38.01 50.574 39.53V41.24H58.174V44.204H50.574V61H47.04V39.454C47.04 36.9207 47.6607 34.97 48.902 33.602C50.1433 32.2087 52.094 31.512 54.754 31.512ZM65.394 61H61.86V41.24H65.394V61ZM63.608 37.668C62.9747 37.668 62.43 37.4653 61.974 37.06C61.5433 36.6293 61.328 36.0593 61.328 35.35C61.328 34.6407 61.5433 34.0833 61.974 33.678C62.43 33.2473 62.9747 33.032 63.608 33.032C64.2413 33.032 64.7733 33.2473 65.204 33.678C65.66 34.0833 65.888 34.6407 65.888 35.35C65.888 36.0593 65.66 36.6293 65.204 37.06C64.7733 37.4653 64.2413 37.668 63.608 37.668ZM78.754 40.822C79.058 40.822 79.4 40.8473 79.78 40.898C80.1853 40.9233 80.578 40.974 80.958 41.05C81.338 41.1007 81.68 41.164 81.984 41.24C82.3133 41.2907 82.554 41.3413 82.706 41.392L82.098 44.47C81.8193 44.3687 81.3506 44.2547 80.692 44.128C80.0586 43.976 79.2353 43.9 78.222 43.9C77.5633 43.9 76.9046 43.976 76.246 44.128C75.6126 44.2547 75.1946 44.3433 74.992 44.394V61H71.458V42.076C72.294 41.772 73.3326 41.4933 74.574 41.24C75.8153 40.9613 77.2086 40.822 78.754 40.822ZM85.0142 51.158C85.0142 49.41 85.2675 47.89 85.7742 46.598C86.2808 45.2807 86.9522 44.1913 87.7882 43.33C88.6242 42.4687 89.5868 41.8227 90.6762 41.392C91.7655 40.9613 92.8802 40.746 94.0202 40.746C96.6802 40.746 98.7195 41.582 100.138 43.254C101.557 44.9007 102.266 47.4213 102.266 50.816C102.266 50.968 102.266 51.1707 102.266 51.424C102.266 51.652 102.254 51.8673 102.228 52.07H88.7002C88.8522 54.122 89.4475 55.68 90.4862 56.744C91.5248 57.808 93.1462 58.34 95.3502 58.34C96.5915 58.34 97.6302 58.2387 98.4662 58.036C99.3275 57.808 99.9735 57.5927 100.404 57.39L100.898 60.354C100.468 60.582 99.7075 60.8227 98.6182 61.076C97.5542 61.3293 96.3382 61.456 94.9702 61.456C93.2475 61.456 91.7528 61.2027 90.4862 60.696C89.2448 60.164 88.2188 59.442 87.4082 58.53C86.5975 57.618 85.9895 56.5413 85.5842 55.3C85.2042 54.0333 85.0142 52.6527 85.0142 51.158ZM98.5802 49.22C98.6055 47.624 98.2002 46.3193 97.3642 45.306C96.5535 44.2673 95.4262 43.748 93.9822 43.748C93.1715 43.748 92.4495 43.9127 91.8162 44.242C91.2082 44.546 90.6888 44.9513 90.2582 45.458C89.8275 45.9647 89.4855 46.5473 89.2322 47.206C89.0042 47.8647 88.8522 48.536 88.7762 49.22H98.5802ZM110.649 41.24H118.135V44.204H110.649V53.324C110.649 54.312 110.725 55.1353 110.877 55.794C111.029 56.4273 111.257 56.934 111.561 57.314C111.865 57.6687 112.245 57.922 112.701 58.074C113.157 58.226 113.689 58.302 114.297 58.302C115.361 58.302 116.209 58.188 116.843 57.96C117.501 57.7067 117.957 57.5293 118.211 57.428L118.895 60.354C118.54 60.5313 117.919 60.7467 117.033 61C116.146 61.2787 115.133 61.418 113.993 61.418C112.65 61.418 111.535 61.2533 110.649 60.924C109.787 60.5693 109.091 60.05 108.559 59.366C108.027 58.682 107.647 57.846 107.419 56.858C107.216 55.8447 107.115 54.6793 107.115 53.362V35.73L110.649 35.122V41.24ZM139.554 51.12C139.554 52.6907 139.326 54.1093 138.87 55.376C138.414 56.6427 137.768 57.732 136.932 58.644C136.122 59.556 135.146 60.2653 134.006 60.772C132.866 61.2533 131.625 61.494 130.282 61.494C128.94 61.494 127.698 61.2533 126.558 60.772C125.418 60.2653 124.43 59.556 123.594 58.644C122.784 57.732 122.15 56.6427 121.694 55.376C121.238 54.1093 121.01 52.6907 121.01 51.12C121.01 49.5747 121.238 48.1687 121.694 46.902C122.15 45.61 122.784 44.508 123.594 43.596C124.43 42.684 125.418 41.9873 126.558 41.506C127.698 40.9993 128.94 40.746 130.282 40.746C131.625 40.746 132.866 40.9993 134.006 41.506C135.146 41.9873 136.122 42.684 136.932 43.596C137.768 44.508 138.414 45.61 138.87 46.902C139.326 48.1687 139.554 49.5747 139.554 51.12ZM135.868 51.12C135.868 48.8907 135.362 47.13 134.348 45.838C133.36 44.5207 132.005 43.862 130.282 43.862C128.56 43.862 127.192 44.5207 126.178 45.838C125.19 47.13 124.696 48.8907 124.696 51.12C124.696 53.3493 125.19 55.1227 126.178 56.44C127.192 57.732 128.56 58.378 130.282 58.378C132.005 58.378 133.36 57.732 134.348 56.44C135.362 55.1227 135.868 53.3493 135.868 51.12ZM144.526 41.81C145.337 41.6073 146.401 41.392 147.718 41.164C149.061 40.936 150.606 40.822 152.354 40.822C153.621 40.822 154.685 40.9993 155.546 41.354C156.408 41.6833 157.13 42.1773 157.712 42.836C157.89 42.7093 158.168 42.532 158.548 42.304C158.928 42.076 159.397 41.8607 159.954 41.658C160.512 41.43 161.132 41.24 161.816 41.088C162.5 40.9107 163.235 40.822 164.02 40.822C165.54 40.822 166.782 41.05 167.744 41.506C168.707 41.9367 169.454 42.5573 169.986 43.368C170.544 44.1787 170.911 45.1413 171.088 46.256C171.291 47.3707 171.392 48.5867 171.392 49.904V61H167.858V50.664C167.858 49.4987 167.795 48.498 167.668 47.662C167.567 46.826 167.352 46.1293 167.022 45.572C166.718 45.0147 166.288 44.6093 165.73 44.356C165.198 44.0773 164.502 43.938 163.64 43.938C162.45 43.938 161.462 44.1027 160.676 44.432C159.916 44.736 159.397 45.0147 159.118 45.268C159.321 45.9267 159.473 46.6487 159.574 47.434C159.676 48.2193 159.726 49.0427 159.726 49.904V61H156.192V50.664C156.192 49.4987 156.129 48.498 156.002 47.662C155.876 46.826 155.648 46.1293 155.318 45.572C155.014 45.0147 154.584 44.6093 154.026 44.356C153.494 44.0773 152.81 43.938 151.974 43.938C151.62 43.938 151.24 43.9507 150.834 43.976C150.429 44.0013 150.036 44.0393 149.656 44.09C149.302 44.1153 148.972 44.1533 148.668 44.204C148.364 44.2547 148.162 44.2927 148.06 44.318V61H144.526V41.81ZM180.791 61H177.257V41.24H180.791V61ZM179.005 37.668C178.371 37.668 177.827 37.4653 177.371 37.06C176.94 36.6293 176.725 36.0593 176.725 35.35C176.725 34.6407 176.94 34.0833 177.371 33.678C177.827 33.2473 178.371 33.032 179.005 33.032C179.638 33.032 180.17 33.2473 180.601 33.678C181.057 34.0833 181.285 34.6407 181.285 35.35C181.285 36.0593 181.057 36.6293 180.601 37.06C180.17 37.4653 179.638 37.668 179.005 37.668ZM195.456 61.456C193.86 61.456 192.454 61.2027 191.238 60.696C190.047 60.1893 189.034 59.48 188.198 58.568C187.387 57.656 186.779 56.5793 186.374 55.338C185.969 54.0713 185.766 52.678 185.766 51.158C185.766 49.638 185.981 48.2447 186.412 46.978C186.868 45.7113 187.501 44.622 188.312 43.71C189.123 42.7727 190.111 42.0507 191.276 41.544C192.467 41.012 193.784 40.746 195.228 40.746C196.115 40.746 197.001 40.822 197.888 40.974C198.775 41.126 199.623 41.3667 200.434 41.696L199.636 44.698C199.104 44.4447 198.483 44.242 197.774 44.09C197.09 43.938 196.355 43.862 195.57 43.862C193.594 43.862 192.074 44.4827 191.01 45.724C189.971 46.9653 189.452 48.7767 189.452 51.158C189.452 52.222 189.566 53.1973 189.794 54.084C190.047 54.9707 190.427 55.7307 190.934 56.364C191.466 56.9973 192.137 57.4913 192.948 57.846C193.759 58.1753 194.747 58.34 195.912 58.34C196.849 58.34 197.698 58.2513 198.458 58.074C199.218 57.8967 199.813 57.7067 200.244 57.504L200.738 60.468C200.535 60.5947 200.244 60.7213 199.864 60.848C199.484 60.9493 199.053 61.038 198.572 61.114C198.091 61.2153 197.571 61.2913 197.014 61.342C196.482 61.418 195.963 61.456 195.456 61.456Z" fill="black"/>
<mask id="mask0_3_2" style="mask-type:alpha" maskUnits="userSpaceOnUse" x="4" y="-4" width="37" height="50">
<rect x="4" y="-4" width="37" height="50" fill="#C4C4C4"/>
</mask>
<g mask="url(#mask0_3_2)">
<path d="M22.2622 -0.263544L38.0778 41.5728H6.44668L22.2622 -0.263544Z" fill="#FFA000"/>
<path d="M32.935 2.64681L35.6082 22.0645L38.2813 41.4823L7.92332 41.4823L32.935 2.64681Z" fill="#FFCA28"/>
</g>
<circle cx="23" cy="54" r="8" fill="#FFB648"/>
</g>
<defs>
<clipPath id="clip0_3_2">
<rect width="210" height="70" fill="white"/>
</clipPath>
</defs>
</svg>
